<mxfile host="app.diagrams.net" agent="Mozilla/5.0 (Windows NT 10.0; Win64; x64) AppleWebKit/537.36 (KHTML, like Gecko) Chrome/130.0.0.0 YaBrowser/24.12.0.0 Safari/537.36" version="25.0.3">
  <diagram name="Страница — 1" id="c-j0I8U7gNKSKaTuOIC3">
    <mxGraphModel dx="1436" dy="774" grid="1" gridSize="10" guides="1" tooltips="1" connect="1" arrows="1" fold="1" page="1" pageScale="1.5" pageWidth="827" pageHeight="1169" background="none" math="0" shadow="0">
      <root>
        <mxCell id="0" />
        <mxCell id="1" parent="0" />
        <mxCell id="4FpxKrJl2ipuVnGI3WRq-1" value="Matches" style="swimlane;fontStyle=0;childLayout=stackLayout;horizontal=1;startSize=30;horizontalStack=0;resizeParent=1;resizeParentMax=0;resizeLast=0;collapsible=1;marginBottom=0;whiteSpace=wrap;html=1;swimlaneFillColor=default;labelBackgroundColor=none;strokeColor=#000000;" vertex="1" parent="1">
          <mxGeometry x="10" y="290" width="190" height="300" as="geometry">
            <mxRectangle x="130" y="110" width="90" height="30" as="alternateBounds" />
          </mxGeometry>
        </mxCell>
        <mxCell id="4FpxKrJl2ipuVnGI3WRq-2" value="MatchID (PK)" style="text;align=left;verticalAlign=middle;spacingLeft=4;spacingRight=4;overflow=hidden;points=[[0,0.5],[1,0.5]];portConstraint=eastwest;rotatable=0;whiteSpace=wrap;html=1;labelBackgroundColor=none;strokeColor=#000000;" vertex="1" parent="4FpxKrJl2ipuVnGI3WRq-1">
          <mxGeometry y="30" width="190" height="30" as="geometry" />
        </mxCell>
        <mxCell id="4FpxKrJl2ipuVnGI3WRq-63" value="Team1ID (FK)" style="text;align=left;verticalAlign=middle;spacingLeft=4;spacingRight=4;overflow=hidden;points=[[0,0.5],[1,0.5]];portConstraint=eastwest;rotatable=0;whiteSpace=wrap;html=1;labelBackgroundColor=none;strokeColor=#000000;" vertex="1" parent="4FpxKrJl2ipuVnGI3WRq-1">
          <mxGeometry y="60" width="190" height="30" as="geometry" />
        </mxCell>
        <mxCell id="4FpxKrJl2ipuVnGI3WRq-64" value="Team2ID (FK)" style="text;align=left;verticalAlign=middle;spacingLeft=4;spacingRight=4;overflow=hidden;points=[[0,0.5],[1,0.5]];portConstraint=eastwest;rotatable=0;whiteSpace=wrap;html=1;labelBackgroundColor=none;strokeColor=#000000;" vertex="1" parent="4FpxKrJl2ipuVnGI3WRq-1">
          <mxGeometry y="90" width="190" height="30" as="geometry" />
        </mxCell>
        <mxCell id="4FpxKrJl2ipuVnGI3WRq-10" value="MatchDate" style="text;align=left;verticalAlign=middle;spacingLeft=4;spacingRight=4;overflow=hidden;points=[[0,0.5],[1,0.5]];portConstraint=eastwest;rotatable=0;whiteSpace=wrap;html=1;labelBackgroundColor=none;strokeColor=#000000;" vertex="1" parent="4FpxKrJl2ipuVnGI3WRq-1">
          <mxGeometry y="120" width="190" height="30" as="geometry" />
        </mxCell>
        <mxCell id="4FpxKrJl2ipuVnGI3WRq-4" value="Duration" style="text;align=left;verticalAlign=middle;spacingLeft=4;spacingRight=4;overflow=hidden;points=[[0,0.5],[1,0.5]];portConstraint=eastwest;rotatable=0;whiteSpace=wrap;html=1;labelBackgroundColor=none;strokeColor=#000000;" vertex="1" parent="4FpxKrJl2ipuVnGI3WRq-1">
          <mxGeometry y="150" width="190" height="30" as="geometry" />
        </mxCell>
        <mxCell id="4FpxKrJl2ipuVnGI3WRq-3" value="ScoreTeam1" style="text;align=left;verticalAlign=middle;spacingLeft=4;spacingRight=4;overflow=hidden;points=[[0,0.5],[1,0.5]];portConstraint=eastwest;rotatable=0;whiteSpace=wrap;html=1;labelBackgroundColor=none;strokeColor=#000000;" vertex="1" parent="4FpxKrJl2ipuVnGI3WRq-1">
          <mxGeometry y="180" width="190" height="30" as="geometry" />
        </mxCell>
        <mxCell id="4FpxKrJl2ipuVnGI3WRq-12" value="ScoreTeam2" style="text;align=left;verticalAlign=middle;spacingLeft=4;spacingRight=4;overflow=hidden;points=[[0,0.5],[1,0.5]];portConstraint=eastwest;rotatable=0;whiteSpace=wrap;html=1;labelBackgroundColor=none;strokeColor=#000000;" vertex="1" parent="4FpxKrJl2ipuVnGI3WRq-1">
          <mxGeometry y="210" width="190" height="30" as="geometry" />
        </mxCell>
        <mxCell id="4FpxKrJl2ipuVnGI3WRq-13" value="Winner" style="text;align=left;verticalAlign=middle;spacingLeft=4;spacingRight=4;overflow=hidden;points=[[0,0.5],[1,0.5]];portConstraint=eastwest;rotatable=0;whiteSpace=wrap;html=1;labelBackgroundColor=none;strokeColor=#000000;" vertex="1" parent="4FpxKrJl2ipuVnGI3WRq-1">
          <mxGeometry y="240" width="190" height="30" as="geometry" />
        </mxCell>
        <mxCell id="4FpxKrJl2ipuVnGI3WRq-11" value="Map" style="text;align=left;verticalAlign=middle;spacingLeft=4;spacingRight=4;overflow=hidden;points=[[0,0.5],[1,0.5]];portConstraint=eastwest;rotatable=0;whiteSpace=wrap;html=1;labelBackgroundColor=none;strokeColor=#000000;" vertex="1" parent="4FpxKrJl2ipuVnGI3WRq-1">
          <mxGeometry y="270" width="190" height="30" as="geometry" />
        </mxCell>
        <mxCell id="4FpxKrJl2ipuVnGI3WRq-14" value="PlayerStats" style="swimlane;fontStyle=0;childLayout=stackLayout;horizontal=1;startSize=30;horizontalStack=0;resizeParent=1;resizeParentMax=0;resizeLast=0;collapsible=1;marginBottom=0;whiteSpace=wrap;html=1;swimlaneFillColor=default;labelBackgroundColor=none;strokeColor=#000000;" vertex="1" parent="1">
          <mxGeometry x="260" y="170" width="190" height="330" as="geometry">
            <mxRectangle x="130" y="110" width="90" height="30" as="alternateBounds" />
          </mxGeometry>
        </mxCell>
        <mxCell id="4FpxKrJl2ipuVnGI3WRq-15" value="PlayerStatID (PK)" style="text;align=left;verticalAlign=middle;spacingLeft=4;spacingRight=4;overflow=hidden;points=[[0,0.5],[1,0.5]];portConstraint=eastwest;rotatable=0;whiteSpace=wrap;html=1;labelBackgroundColor=none;strokeColor=#000000;" vertex="1" parent="4FpxKrJl2ipuVnGI3WRq-14">
          <mxGeometry y="30" width="190" height="30" as="geometry" />
        </mxCell>
        <mxCell id="4FpxKrJl2ipuVnGI3WRq-47" value="PlayerID (FK)" style="text;align=left;verticalAlign=middle;spacingLeft=4;spacingRight=4;overflow=hidden;points=[[0,0.5],[1,0.5]];portConstraint=eastwest;rotatable=0;whiteSpace=wrap;html=1;labelBackgroundColor=none;strokeColor=#000000;" vertex="1" parent="4FpxKrJl2ipuVnGI3WRq-14">
          <mxGeometry y="60" width="190" height="30" as="geometry" />
        </mxCell>
        <mxCell id="4FpxKrJl2ipuVnGI3WRq-16" value="MatchID (FK)" style="text;align=left;verticalAlign=middle;spacingLeft=4;spacingRight=4;overflow=hidden;points=[[0,0.5],[1,0.5]];portConstraint=eastwest;rotatable=0;whiteSpace=wrap;html=1;labelBackgroundColor=none;strokeColor=#000000;" vertex="1" parent="4FpxKrJl2ipuVnGI3WRq-14">
          <mxGeometry y="90" width="190" height="30" as="geometry" />
        </mxCell>
        <mxCell id="4FpxKrJl2ipuVnGI3WRq-21" value="WeaponUsed (FK)" style="text;align=left;verticalAlign=middle;spacingLeft=4;spacingRight=4;overflow=hidden;points=[[0,0.5],[1,0.5]];portConstraint=eastwest;rotatable=0;whiteSpace=wrap;html=1;labelBackgroundColor=none;strokeColor=#000000;" vertex="1" parent="4FpxKrJl2ipuVnGI3WRq-14">
          <mxGeometry y="120" width="190" height="30" as="geometry" />
        </mxCell>
        <mxCell id="4FpxKrJl2ipuVnGI3WRq-24" value="AgentUsed (FK)" style="text;align=left;verticalAlign=middle;spacingLeft=4;spacingRight=4;overflow=hidden;points=[[0,0.5],[1,0.5]];portConstraint=eastwest;rotatable=0;whiteSpace=wrap;html=1;labelBackgroundColor=none;strokeColor=#000000;" vertex="1" parent="4FpxKrJl2ipuVnGI3WRq-14">
          <mxGeometry y="150" width="190" height="30" as="geometry" />
        </mxCell>
        <mxCell id="4FpxKrJl2ipuVnGI3WRq-17" value="PlayerName" style="text;align=left;verticalAlign=middle;spacingLeft=4;spacingRight=4;overflow=hidden;points=[[0,0.5],[1,0.5]];portConstraint=eastwest;rotatable=0;whiteSpace=wrap;html=1;labelBackgroundColor=none;strokeColor=#000000;" vertex="1" parent="4FpxKrJl2ipuVnGI3WRq-14">
          <mxGeometry y="180" width="190" height="30" as="geometry" />
        </mxCell>
        <mxCell id="4FpxKrJl2ipuVnGI3WRq-18" value="Kills" style="text;align=left;verticalAlign=middle;spacingLeft=4;spacingRight=4;overflow=hidden;points=[[0,0.5],[1,0.5]];portConstraint=eastwest;rotatable=0;whiteSpace=wrap;html=1;labelBackgroundColor=none;strokeColor=#000000;" vertex="1" parent="4FpxKrJl2ipuVnGI3WRq-14">
          <mxGeometry y="210" width="190" height="30" as="geometry" />
        </mxCell>
        <mxCell id="4FpxKrJl2ipuVnGI3WRq-19" value="Deaths" style="text;align=left;verticalAlign=middle;spacingLeft=4;spacingRight=4;overflow=hidden;points=[[0,0.5],[1,0.5]];portConstraint=eastwest;rotatable=0;whiteSpace=wrap;html=1;labelBackgroundColor=none;strokeColor=#000000;" vertex="1" parent="4FpxKrJl2ipuVnGI3WRq-14">
          <mxGeometry y="240" width="190" height="30" as="geometry" />
        </mxCell>
        <mxCell id="4FpxKrJl2ipuVnGI3WRq-20" value="Assists" style="text;align=left;verticalAlign=middle;spacingLeft=4;spacingRight=4;overflow=hidden;points=[[0,0.5],[1,0.5]];portConstraint=eastwest;rotatable=0;whiteSpace=wrap;html=1;labelBackgroundColor=none;strokeColor=#000000;" vertex="1" parent="4FpxKrJl2ipuVnGI3WRq-14">
          <mxGeometry y="270" width="190" height="30" as="geometry" />
        </mxCell>
        <mxCell id="4FpxKrJl2ipuVnGI3WRq-23" value="HeadShots" style="text;align=left;verticalAlign=middle;spacingLeft=4;spacingRight=4;overflow=hidden;points=[[0,0.5],[1,0.5]];portConstraint=eastwest;rotatable=0;whiteSpace=wrap;html=1;labelBackgroundColor=none;strokeColor=#000000;" vertex="1" parent="4FpxKrJl2ipuVnGI3WRq-14">
          <mxGeometry y="300" width="190" height="30" as="geometry" />
        </mxCell>
        <mxCell id="4FpxKrJl2ipuVnGI3WRq-26" value="Weapons" style="swimlane;fontStyle=0;childLayout=stackLayout;horizontal=1;startSize=30;horizontalStack=0;resizeParent=1;resizeParentMax=0;resizeLast=0;collapsible=1;marginBottom=0;whiteSpace=wrap;html=1;swimlaneFillColor=default;labelBackgroundColor=none;strokeColor=#000000;" vertex="1" parent="1">
          <mxGeometry x="310" y="20" width="190" height="120" as="geometry">
            <mxRectangle x="130" y="110" width="90" height="30" as="alternateBounds" />
          </mxGeometry>
        </mxCell>
        <mxCell id="4FpxKrJl2ipuVnGI3WRq-27" value="WeaponID (PK)" style="text;align=left;verticalAlign=middle;spacingLeft=4;spacingRight=4;overflow=hidden;points=[[0,0.5],[1,0.5]];portConstraint=eastwest;rotatable=0;whiteSpace=wrap;html=1;labelBackgroundColor=none;strokeColor=#000000;" vertex="1" parent="4FpxKrJl2ipuVnGI3WRq-26">
          <mxGeometry y="30" width="190" height="30" as="geometry" />
        </mxCell>
        <mxCell id="4FpxKrJl2ipuVnGI3WRq-28" value="Name" style="text;align=left;verticalAlign=middle;spacingLeft=4;spacingRight=4;overflow=hidden;points=[[0,0.5],[1,0.5]];portConstraint=eastwest;rotatable=0;whiteSpace=wrap;html=1;labelBackgroundColor=none;strokeColor=#000000;" vertex="1" parent="4FpxKrJl2ipuVnGI3WRq-26">
          <mxGeometry y="60" width="190" height="30" as="geometry" />
        </mxCell>
        <mxCell id="4FpxKrJl2ipuVnGI3WRq-29" value="Type" style="text;align=left;verticalAlign=middle;spacingLeft=4;spacingRight=4;overflow=hidden;points=[[0,0.5],[1,0.5]];portConstraint=eastwest;rotatable=0;whiteSpace=wrap;html=1;labelBackgroundColor=none;strokeColor=#000000;" vertex="1" parent="4FpxKrJl2ipuVnGI3WRq-26">
          <mxGeometry y="90" width="190" height="30" as="geometry" />
        </mxCell>
        <mxCell id="4FpxKrJl2ipuVnGI3WRq-35" value="Agents" style="swimlane;fontStyle=0;childLayout=stackLayout;horizontal=1;startSize=30;horizontalStack=0;resizeParent=1;resizeParentMax=0;resizeLast=0;collapsible=1;marginBottom=0;whiteSpace=wrap;html=1;swimlaneFillColor=default;labelBackgroundColor=none;strokeColor=#000000;" vertex="1" parent="1">
          <mxGeometry x="660" y="130" width="190" height="240" as="geometry">
            <mxRectangle x="130" y="110" width="90" height="30" as="alternateBounds" />
          </mxGeometry>
        </mxCell>
        <mxCell id="4FpxKrJl2ipuVnGI3WRq-36" value="AgentID (PK)" style="text;align=left;verticalAlign=middle;spacingLeft=4;spacingRight=4;overflow=hidden;points=[[0,0.5],[1,0.5]];portConstraint=eastwest;rotatable=0;whiteSpace=wrap;html=1;labelBackgroundColor=none;strokeColor=#000000;" vertex="1" parent="4FpxKrJl2ipuVnGI3WRq-35">
          <mxGeometry y="30" width="190" height="30" as="geometry" />
        </mxCell>
        <mxCell id="4FpxKrJl2ipuVnGI3WRq-37" value="Name" style="text;align=left;verticalAlign=middle;spacingLeft=4;spacingRight=4;overflow=hidden;points=[[0,0.5],[1,0.5]];portConstraint=eastwest;rotatable=0;whiteSpace=wrap;html=1;labelBackgroundColor=none;strokeColor=#000000;" vertex="1" parent="4FpxKrJl2ipuVnGI3WRq-35">
          <mxGeometry y="60" width="190" height="30" as="geometry" />
        </mxCell>
        <mxCell id="4FpxKrJl2ipuVnGI3WRq-38" value="Role" style="text;align=left;verticalAlign=middle;spacingLeft=4;spacingRight=4;overflow=hidden;points=[[0,0.5],[1,0.5]];portConstraint=eastwest;rotatable=0;whiteSpace=wrap;html=1;labelBackgroundColor=none;strokeColor=#000000;" vertex="1" parent="4FpxKrJl2ipuVnGI3WRq-35">
          <mxGeometry y="90" width="190" height="30" as="geometry" />
        </mxCell>
        <mxCell id="4FpxKrJl2ipuVnGI3WRq-39" value="Ability1&lt;span style=&quot;font-family: monospace; font-size: 0px; text-wrap-mode: nowrap;&quot;&gt;%3CmxGraphModel%3E%3Croot%3E%3CmxCell%20id%3D%220%22%2F%3E%3CmxCell%20id%3D%221%22%20parent%3D%220%22%2F%3E%3CmxCell%20id%3D%222%22%20value%3D%22Role%22%20style%3D%22text%3BstrokeColor%3Dnone%3BfillColor%3Dnone%3Balign%3Dleft%3BverticalAlign%3Dmiddle%3BspacingLeft%3D4%3BspacingRight%3D4%3Boverflow%3Dhidden%3Bpoints%3D%5B%5B0%2C0.5%5D%2C%5B1%2C0.5%5D%5D%3BportConstraint%3Deastwest%3Brotatable%3D0%3BwhiteSpace%3Dwrap%3Bhtml%3D1%3B%22%20vertex%3D%221%22%20parent%3D%221%22%3E%3CmxGeometry%20x%3D%22210%22%20y%3D%22720%22%20width%3D%22190%22%20height%3D%2230%22%20as%3D%22geometry%22%2F%3E%3C%2FmxCell%3E%3C%2Froot%3E%3C%2FmxGraphModel%3E&lt;/span&gt;" style="text;align=left;verticalAlign=middle;spacingLeft=4;spacingRight=4;overflow=hidden;points=[[0,0.5],[1,0.5]];portConstraint=eastwest;rotatable=0;whiteSpace=wrap;html=1;labelBackgroundColor=none;strokeColor=#000000;" vertex="1" parent="4FpxKrJl2ipuVnGI3WRq-35">
          <mxGeometry y="120" width="190" height="30" as="geometry" />
        </mxCell>
        <mxCell id="4FpxKrJl2ipuVnGI3WRq-40" value="Ability2" style="text;align=left;verticalAlign=middle;spacingLeft=4;spacingRight=4;overflow=hidden;points=[[0,0.5],[1,0.5]];portConstraint=eastwest;rotatable=0;whiteSpace=wrap;html=1;labelBackgroundColor=none;strokeColor=#000000;" vertex="1" parent="4FpxKrJl2ipuVnGI3WRq-35">
          <mxGeometry y="150" width="190" height="30" as="geometry" />
        </mxCell>
        <mxCell id="4FpxKrJl2ipuVnGI3WRq-41" value="Ability3" style="text;align=left;verticalAlign=middle;spacingLeft=4;spacingRight=4;overflow=hidden;points=[[0,0.5],[1,0.5]];portConstraint=eastwest;rotatable=0;whiteSpace=wrap;html=1;labelBackgroundColor=none;strokeColor=#000000;" vertex="1" parent="4FpxKrJl2ipuVnGI3WRq-35">
          <mxGeometry y="180" width="190" height="30" as="geometry" />
        </mxCell>
        <mxCell id="4FpxKrJl2ipuVnGI3WRq-42" value="Ultimate" style="text;align=left;verticalAlign=middle;spacingLeft=4;spacingRight=4;overflow=hidden;points=[[0,0.5],[1,0.5]];portConstraint=eastwest;rotatable=0;whiteSpace=wrap;html=1;labelBackgroundColor=none;strokeColor=#000000;" vertex="1" parent="4FpxKrJl2ipuVnGI3WRq-35">
          <mxGeometry y="210" width="190" height="30" as="geometry" />
        </mxCell>
        <mxCell id="4FpxKrJl2ipuVnGI3WRq-43" value="Teams" style="swimlane;fontStyle=0;childLayout=stackLayout;horizontal=1;startSize=30;horizontalStack=0;resizeParent=1;resizeParentMax=0;resizeLast=0;collapsible=1;marginBottom=0;whiteSpace=wrap;html=1;swimlaneFillColor=default;labelBackgroundColor=none;strokeColor=#000000;" vertex="1" parent="1">
          <mxGeometry x="260" y="615" width="190" height="90" as="geometry">
            <mxRectangle x="130" y="110" width="90" height="30" as="alternateBounds" />
          </mxGeometry>
        </mxCell>
        <mxCell id="4FpxKrJl2ipuVnGI3WRq-44" value="TeamID (PK)" style="text;align=left;verticalAlign=middle;spacingLeft=4;spacingRight=4;overflow=hidden;points=[[0,0.5],[1,0.5]];portConstraint=eastwest;rotatable=0;whiteSpace=wrap;html=1;labelBackgroundColor=none;strokeColor=#000000;" vertex="1" parent="4FpxKrJl2ipuVnGI3WRq-43">
          <mxGeometry y="30" width="190" height="30" as="geometry" />
        </mxCell>
        <mxCell id="4FpxKrJl2ipuVnGI3WRq-45" value="TeamName" style="text;align=left;verticalAlign=middle;spacingLeft=4;spacingRight=4;overflow=hidden;points=[[0,0.5],[1,0.5]];portConstraint=eastwest;rotatable=0;whiteSpace=wrap;html=1;labelBackgroundColor=none;strokeColor=#000000;" vertex="1" parent="4FpxKrJl2ipuVnGI3WRq-43">
          <mxGeometry y="60" width="190" height="30" as="geometry" />
        </mxCell>
        <mxCell id="4FpxKrJl2ipuVnGI3WRq-49" value="OverallPlayerStats" style="swimlane;fontStyle=0;childLayout=stackLayout;horizontal=1;startSize=30;horizontalStack=0;resizeParent=1;resizeParentMax=0;resizeLast=0;collapsible=1;marginBottom=0;whiteSpace=wrap;html=1;swimlaneFillColor=default;labelBackgroundColor=none;strokeColor=#000000;" vertex="1" parent="1">
          <mxGeometry x="930" y="210" width="190" height="390" as="geometry">
            <mxRectangle x="130" y="110" width="90" height="30" as="alternateBounds" />
          </mxGeometry>
        </mxCell>
        <mxCell id="4FpxKrJl2ipuVnGI3WRq-50" value="OverallStatID (PK)" style="text;align=left;verticalAlign=middle;spacingLeft=4;spacingRight=4;overflow=hidden;points=[[0,0.5],[1,0.5]];portConstraint=eastwest;rotatable=0;whiteSpace=wrap;html=1;labelBackgroundColor=none;strokeColor=#000000;" vertex="1" parent="4FpxKrJl2ipuVnGI3WRq-49">
          <mxGeometry y="30" width="190" height="30" as="geometry" />
        </mxCell>
        <mxCell id="4FpxKrJl2ipuVnGI3WRq-51" value="PlayerID (FK)" style="text;align=left;verticalAlign=middle;spacingLeft=4;spacingRight=4;overflow=hidden;points=[[0,0.5],[1,0.5]];portConstraint=eastwest;rotatable=0;whiteSpace=wrap;html=1;labelBackgroundColor=none;strokeColor=#000000;" vertex="1" parent="4FpxKrJl2ipuVnGI3WRq-49">
          <mxGeometry y="60" width="190" height="30" as="geometry" />
        </mxCell>
        <mxCell id="4FpxKrJl2ipuVnGI3WRq-60" value="FavoriteAgent (FK)" style="text;align=left;verticalAlign=middle;spacingLeft=4;spacingRight=4;overflow=hidden;points=[[0,0.5],[1,0.5]];portConstraint=eastwest;rotatable=0;whiteSpace=wrap;html=1;labelBackgroundColor=none;strokeColor=#000000;" vertex="1" parent="4FpxKrJl2ipuVnGI3WRq-49">
          <mxGeometry y="90" width="190" height="30" as="geometry" />
        </mxCell>
        <mxCell id="4FpxKrJl2ipuVnGI3WRq-52" value="TotalMatches" style="text;align=left;verticalAlign=middle;spacingLeft=4;spacingRight=4;overflow=hidden;points=[[0,0.5],[1,0.5]];portConstraint=eastwest;rotatable=0;whiteSpace=wrap;html=1;labelBackgroundColor=none;strokeColor=#000000;" vertex="1" parent="4FpxKrJl2ipuVnGI3WRq-49">
          <mxGeometry y="120" width="190" height="30" as="geometry" />
        </mxCell>
        <mxCell id="4FpxKrJl2ipuVnGI3WRq-53" value="TotalKills" style="text;align=left;verticalAlign=middle;spacingLeft=4;spacingRight=4;overflow=hidden;points=[[0,0.5],[1,0.5]];portConstraint=eastwest;rotatable=0;whiteSpace=wrap;html=1;labelBackgroundColor=none;strokeColor=#000000;" vertex="1" parent="4FpxKrJl2ipuVnGI3WRq-49">
          <mxGeometry y="150" width="190" height="30" as="geometry" />
        </mxCell>
        <mxCell id="4FpxKrJl2ipuVnGI3WRq-54" value="TotalDeaths" style="text;align=left;verticalAlign=middle;spacingLeft=4;spacingRight=4;overflow=hidden;points=[[0,0.5],[1,0.5]];portConstraint=eastwest;rotatable=0;whiteSpace=wrap;html=1;labelBackgroundColor=none;strokeColor=#000000;" vertex="1" parent="4FpxKrJl2ipuVnGI3WRq-49">
          <mxGeometry y="180" width="190" height="30" as="geometry" />
        </mxCell>
        <mxCell id="4FpxKrJl2ipuVnGI3WRq-55" value="TotalAssists" style="text;align=left;verticalAlign=middle;spacingLeft=4;spacingRight=4;overflow=hidden;points=[[0,0.5],[1,0.5]];portConstraint=eastwest;rotatable=0;whiteSpace=wrap;html=1;labelBackgroundColor=none;strokeColor=#000000;" vertex="1" parent="4FpxKrJl2ipuVnGI3WRq-49">
          <mxGeometry y="210" width="190" height="30" as="geometry" />
        </mxCell>
        <mxCell id="4FpxKrJl2ipuVnGI3WRq-56" value="TotalHeadShots" style="text;align=left;verticalAlign=middle;spacingLeft=4;spacingRight=4;overflow=hidden;points=[[0,0.5],[1,0.5]];portConstraint=eastwest;rotatable=0;whiteSpace=wrap;html=1;labelBackgroundColor=none;strokeColor=#000000;" vertex="1" parent="4FpxKrJl2ipuVnGI3WRq-49">
          <mxGeometry y="240" width="190" height="30" as="geometry" />
        </mxCell>
        <mxCell id="4FpxKrJl2ipuVnGI3WRq-57" value="TotalWins" style="text;align=left;verticalAlign=middle;spacingLeft=4;spacingRight=4;overflow=hidden;points=[[0,0.5],[1,0.5]];portConstraint=eastwest;rotatable=0;whiteSpace=wrap;html=1;labelBackgroundColor=none;strokeColor=#000000;" vertex="1" parent="4FpxKrJl2ipuVnGI3WRq-49">
          <mxGeometry y="270" width="190" height="30" as="geometry" />
        </mxCell>
        <mxCell id="4FpxKrJl2ipuVnGI3WRq-58" value="TotalLosses" style="text;align=left;verticalAlign=middle;spacingLeft=4;spacingRight=4;overflow=hidden;points=[[0,0.5],[1,0.5]];portConstraint=eastwest;rotatable=0;whiteSpace=wrap;html=1;labelBackgroundColor=none;strokeColor=#000000;" vertex="1" parent="4FpxKrJl2ipuVnGI3WRq-49">
          <mxGeometry y="300" width="190" height="30" as="geometry" />
        </mxCell>
        <mxCell id="4FpxKrJl2ipuVnGI3WRq-59" value="FavoriteAgent" style="text;align=left;verticalAlign=middle;spacingLeft=4;spacingRight=4;overflow=hidden;points=[[0,0.5],[1,0.5]];portConstraint=eastwest;rotatable=0;whiteSpace=wrap;html=1;labelBackgroundColor=none;strokeColor=#000000;" vertex="1" parent="4FpxKrJl2ipuVnGI3WRq-49">
          <mxGeometry y="330" width="190" height="30" as="geometry" />
        </mxCell>
        <mxCell id="4FpxKrJl2ipuVnGI3WRq-61" value="FavoriteRole" style="text;align=left;verticalAlign=middle;spacingLeft=4;spacingRight=4;overflow=hidden;points=[[0,0.5],[1,0.5]];portConstraint=eastwest;rotatable=0;whiteSpace=wrap;html=1;labelBackgroundColor=none;strokeColor=#000000;" vertex="1" parent="4FpxKrJl2ipuVnGI3WRq-49">
          <mxGeometry y="360" width="190" height="30" as="geometry" />
        </mxCell>
        <mxCell id="4FpxKrJl2ipuVnGI3WRq-65" value="Player" style="swimlane;fontStyle=0;childLayout=stackLayout;horizontal=1;startSize=30;horizontalStack=0;resizeParent=1;resizeParentMax=0;resizeLast=0;collapsible=1;marginBottom=0;whiteSpace=wrap;html=1;swimlaneFillColor=default;labelBackgroundColor=none;strokeColor=#000000;" vertex="1" parent="1">
          <mxGeometry x="525" y="480" width="190" height="120" as="geometry">
            <mxRectangle x="130" y="110" width="90" height="30" as="alternateBounds" />
          </mxGeometry>
        </mxCell>
        <mxCell id="4FpxKrJl2ipuVnGI3WRq-66" value="PlayerID (PK)" style="text;align=left;verticalAlign=middle;spacingLeft=4;spacingRight=4;overflow=hidden;points=[[0,0.5],[1,0.5]];portConstraint=eastwest;rotatable=0;whiteSpace=wrap;html=1;labelBackgroundColor=none;strokeColor=#000000;" vertex="1" parent="4FpxKrJl2ipuVnGI3WRq-65">
          <mxGeometry y="30" width="190" height="30" as="geometry" />
        </mxCell>
        <mxCell id="4FpxKrJl2ipuVnGI3WRq-68" value="TeamID (FK)" style="text;align=left;verticalAlign=middle;spacingLeft=4;spacingRight=4;overflow=hidden;points=[[0,0.5],[1,0.5]];portConstraint=eastwest;rotatable=0;whiteSpace=wrap;html=1;labelBackgroundColor=none;strokeColor=#000000;" vertex="1" parent="4FpxKrJl2ipuVnGI3WRq-65">
          <mxGeometry y="60" width="190" height="30" as="geometry" />
        </mxCell>
        <mxCell id="4FpxKrJl2ipuVnGI3WRq-67" value="Name" style="text;align=left;verticalAlign=middle;spacingLeft=4;spacingRight=4;overflow=hidden;points=[[0,0.5],[1,0.5]];portConstraint=eastwest;rotatable=0;whiteSpace=wrap;html=1;labelBackgroundColor=none;strokeColor=#000000;" vertex="1" parent="4FpxKrJl2ipuVnGI3WRq-65">
          <mxGeometry y="90" width="190" height="30" as="geometry" />
        </mxCell>
        <mxCell id="4FpxKrJl2ipuVnGI3WRq-74" style="edgeStyle=orthogonalEdgeStyle;rounded=0;orthogonalLoop=1;jettySize=auto;html=1;exitX=0;exitY=0.5;exitDx=0;exitDy=0;entryX=1;entryY=0.5;entryDx=0;entryDy=0;startArrow=ERmandOne;startFill=0;endArrow=ERmany;endFill=0;fontColor=#FFFFFF;labelBackgroundColor=none;strokeColor=#000000;" edge="1" parent="1" source="4FpxKrJl2ipuVnGI3WRq-66" target="4FpxKrJl2ipuVnGI3WRq-24">
          <mxGeometry relative="1" as="geometry" />
        </mxCell>
        <mxCell id="4FpxKrJl2ipuVnGI3WRq-75" style="edgeStyle=orthogonalEdgeStyle;rounded=0;orthogonalLoop=1;jettySize=auto;html=1;exitX=0;exitY=0.5;exitDx=0;exitDy=0;entryX=1;entryY=0.5;entryDx=0;entryDy=0;startArrow=ERmandOne;startFill=0;endArrow=ERmandOne;endFill=0;fontColor=#FFFFFF;labelBackgroundColor=none;strokeColor=#000000;" edge="1" parent="1" source="4FpxKrJl2ipuVnGI3WRq-68" target="4FpxKrJl2ipuVnGI3WRq-43">
          <mxGeometry relative="1" as="geometry" />
        </mxCell>
        <mxCell id="4FpxKrJl2ipuVnGI3WRq-76" style="edgeStyle=orthogonalEdgeStyle;rounded=0;orthogonalLoop=1;jettySize=auto;html=1;exitX=0;exitY=0.5;exitDx=0;exitDy=0;entryX=1;entryY=0.5;entryDx=0;entryDy=0;startArrow=ERmany;startFill=0;endArrow=ERmandOne;endFill=0;fontColor=#FFFFFF;labelBackgroundColor=none;strokeColor=#000000;" edge="1" parent="1" source="4FpxKrJl2ipuVnGI3WRq-16" target="4FpxKrJl2ipuVnGI3WRq-2">
          <mxGeometry relative="1" as="geometry" />
        </mxCell>
        <mxCell id="4FpxKrJl2ipuVnGI3WRq-77" style="edgeStyle=orthogonalEdgeStyle;rounded=0;orthogonalLoop=1;jettySize=auto;html=1;exitX=0;exitY=0.5;exitDx=0;exitDy=0;entryX=1;entryY=0.5;entryDx=0;entryDy=0;startArrow=ERmany;startFill=0;endArrow=ERmany;endFill=0;fontColor=#FFFFFF;labelBackgroundColor=none;strokeColor=#000000;" edge="1" parent="1" source="4FpxKrJl2ipuVnGI3WRq-44" target="4FpxKrJl2ipuVnGI3WRq-64">
          <mxGeometry relative="1" as="geometry" />
        </mxCell>
        <mxCell id="4FpxKrJl2ipuVnGI3WRq-78" style="edgeStyle=orthogonalEdgeStyle;rounded=0;orthogonalLoop=1;jettySize=auto;html=1;exitX=1;exitY=0.5;exitDx=0;exitDy=0;entryX=1;entryY=0.5;entryDx=0;entryDy=0;startArrow=ERmany;startFill=0;endArrow=ERmandOne;endFill=0;fontColor=#FFFFFF;labelBackgroundColor=none;strokeColor=#000000;" edge="1" parent="1" source="4FpxKrJl2ipuVnGI3WRq-15" target="4FpxKrJl2ipuVnGI3WRq-27">
          <mxGeometry relative="1" as="geometry" />
        </mxCell>
        <mxCell id="4FpxKrJl2ipuVnGI3WRq-79" style="edgeStyle=orthogonalEdgeStyle;rounded=0;orthogonalLoop=1;jettySize=auto;html=1;exitX=1;exitY=0.5;exitDx=0;exitDy=0;entryX=0;entryY=0.5;entryDx=0;entryDy=0;startArrow=ERmandOne;startFill=0;endArrow=ERmandOne;endFill=0;fontColor=#FFFFFF;labelBackgroundColor=none;strokeColor=#000000;" edge="1" parent="1" source="4FpxKrJl2ipuVnGI3WRq-66" target="4FpxKrJl2ipuVnGI3WRq-54">
          <mxGeometry relative="1" as="geometry" />
        </mxCell>
        <mxCell id="4FpxKrJl2ipuVnGI3WRq-81" style="edgeStyle=orthogonalEdgeStyle;rounded=0;orthogonalLoop=1;jettySize=auto;html=1;exitX=1;exitY=0.5;exitDx=0;exitDy=0;entryX=0;entryY=0.5;entryDx=0;entryDy=0;startArrow=ERmany;startFill=0;endArrow=ERmandOne;endFill=0;fontColor=#FFFFFF;labelBackgroundColor=none;strokeColor=#000000;" edge="1" parent="1" source="4FpxKrJl2ipuVnGI3WRq-16" target="4FpxKrJl2ipuVnGI3WRq-36">
          <mxGeometry relative="1" as="geometry" />
        </mxCell>
        <mxCell id="4FpxKrJl2ipuVnGI3WRq-82" style="edgeStyle=orthogonalEdgeStyle;rounded=0;orthogonalLoop=1;jettySize=auto;html=1;exitX=1;exitY=0.5;exitDx=0;exitDy=0;entryX=0;entryY=0.5;entryDx=0;entryDy=0;startArrow=ERmandOne;startFill=0;endArrow=ERmany;endFill=0;fontColor=#FFFFFF;labelBackgroundColor=none;strokeColor=#000000;" edge="1" parent="1" source="4FpxKrJl2ipuVnGI3WRq-36" target="4FpxKrJl2ipuVnGI3WRq-60">
          <mxGeometry relative="1" as="geometry" />
        </mxCell>
      </root>
    </mxGraphModel>
  </diagram>
</mxfile>
